<?xml version="1.0" encoding="UTF-8"?>
<svg width="48" height="48" viewBox="0 0 48 48" fill="none" xmlns="http://www.w3.org/2000/svg">
    <rect width="48" height="48" fill="#F3F4F6"/>
    <path d="M24 14C25.1046 14 26 13.1046 26 12C26 10.8954 25.1046 10 24 10C22.8954 10 22 10.8954 22 12C22 13.1046 22.8954 14 24 14Z" fill="#9CA3AF"/>
    <path d="M32 36H16C14.8954 36 14 35.1046 14 34V20C14 18.8954 14.8954 18 16 18H32C33.1046 18 34 18.8954 34 20V34C34 35.1046 33.1046 36 32 36Z" stroke="#9CA3AF" stroke-width="2"/>
    <path d="M34 30L28 24L16 36" stroke="#9CA3AF" stroke-width="2"/>
    <path d="M30 36L24 30L20 34" stroke="#9CA3AF" stroke-width="2"/>
</svg> 